<svg width="26" height="26" viewBox="0 0 26 26" fill="none" xmlns="http://www.w3.org/2000/svg">
<path d="M13 1.625C16.0168 1.625 18.9101 2.82343 21.0433 4.95666C23.1766 7.08989 24.375 9.98316 24.375 13C24.375 16.0168 23.1766 18.9101 21.0433 21.0433C18.9101 23.1766 16.0168 24.375 13 24.375C9.98316 24.375 7.08989 23.1766 4.95666 21.0433C2.82343 18.9101 1.625 16.0168 1.625 13C1.625 9.98316 2.82343 7.08989 4.95666 4.95666C7.08989 2.82343 9.98316 1.625 13 1.625ZM13 11.6204L10.3577 8.97813C10.1748 8.79518 9.92667 8.6924 9.66794 8.6924C9.40921 8.6924 9.16107 8.79518 8.97813 8.97813C8.79518 9.16107 8.6924 9.40921 8.6924 9.66794C8.6924 9.92667 8.79518 10.1748 8.97813 10.3577L11.6204 13L8.97813 15.6423C8.88754 15.7328 8.81568 15.8404 8.76665 15.9587C8.71763 16.0771 8.6924 16.204 8.6924 16.3321C8.6924 16.4602 8.71763 16.587 8.76665 16.7054C8.81568 16.8237 8.88754 16.9313 8.97813 17.0219C9.06871 17.1125 9.17626 17.1843 9.29461 17.2333C9.41297 17.2824 9.53983 17.3076 9.66794 17.3076C9.79605 17.3076 9.9229 17.2824 10.0413 17.2333C10.1596 17.1843 10.2672 17.1125 10.3577 17.0219L13 14.3796L15.6423 17.0219C15.7328 17.1125 15.8404 17.1843 15.9587 17.2333C16.0771 17.2824 16.204 17.3076 16.3321 17.3076C16.4602 17.3076 16.587 17.2824 16.7054 17.2333C16.8237 17.1843 16.9313 17.1125 17.0219 17.0219C17.1125 16.9313 17.1843 16.8237 17.2333 16.7054C17.2824 16.587 17.3076 16.4602 17.3076 16.3321C17.3076 16.204 17.2824 16.0771 17.2333 15.9587C17.1843 15.8404 17.1125 15.7328 17.0219 15.6423L14.3796 13L17.0219 10.3577C17.1125 10.2672 17.1843 10.1596 17.2333 10.0413C17.2824 9.9229 17.3076 9.79605 17.3076 9.66794C17.3076 9.53983 17.2824 9.41297 17.2333 9.29461C17.1843 9.17626 17.1125 9.06871 17.0219 8.97813C16.9313 8.88754 16.8237 8.81568 16.7054 8.76665C16.587 8.71763 16.4602 8.6924 16.3321 8.6924C16.204 8.6924 16.0771 8.71763 15.9587 8.76665C15.8404 8.81568 15.7328 8.88754 15.6423 8.97813L13 11.6204Z" fill="#9E9A9A"/>
</svg>